<?xml version="1.0" encoding="utf-8"?>
<!-- Generator: Adobe Illustrator 15.0.0, SVG Export Plug-In . SVG Version: 6.00 Build 0)  -->
<!DOCTYPE svg PUBLIC "-//W3C//DTD SVG 1.1//EN" "http://www.w3.org/Graphics/SVG/1.1/DTD/svg11.dtd">
<svg version="1.1" id="Layer_1" xmlns="http://www.w3.org/2000/svg" xmlns:xlink="http://www.w3.org/1999/xlink" x="0px" y="0px"
	 width="500px" height="100px" viewBox="0 0 500 100" enable-background="new 0 0 500 100" xml:space="preserve">
<g>
	<path fill="#FFFFFF" d="M254.057,81.873h-12.498l-9.221-44.548l-21.339,41.101c-1.434,2.797-3.411,4.197-5.962,4.197
		c-2.867,0-5.042-1.434-6.529-4.287l-21.342-41.011l-9.133,44.548h-12.587l14.26-58.435c0.38-1.679,1.198-3.145,2.469-4.376
		c1.283-1.251,2.747-1.871,4.425-1.871c2.434,0,4.731,2.079,6.906,6.247l21.257,41.666l21.344-41.666
		c2.171-4.168,4.459-6.247,6.882-6.247c1.626,0,3.115,0.655,4.481,1.958c1.179,1.181,1.982,2.609,2.425,4.288L254.057,81.873z"/>
	<path fill="#FFFFFF" d="M347.821,81.775l-14.268-0.088l-10.712-17.803h-30.197l6.718-11h16.863l-11.09-18.36l-28.707,47.163
		h-14.262l34.577-57.511c0.875-1.49,2.083-2.853,3.629-4.098c1.871-1.429,3.551-2.143,5.039-2.143c1.605,0,3.299,0.691,5.039,2.049
		c1.488,1.19,2.699,2.578,3.636,4.191L347.821,81.775z"/>
	<path fill="#FFFFFF" d="M421.27,62.113c0,6.027-2.141,10.881-6.429,14.535c-4.095,3.426-9.231,5.127-15.396,5.127h-48.556V70.691
		h48.556c3.066,0,5.695-0.688,7.934-2.051c2.549-1.678,3.826-3.947,3.826-6.801c0-2.863-1.298-5.061-3.908-6.621
		c-2.177-1.305-4.785-1.961-7.852-1.961h-30.003c-5.529,0-10.154-1.521-13.883-4.558c-3.979-3.3-5.967-7.654-5.967-13.05
		c0-5.346,1.988-9.664,5.967-12.963c3.729-3.042,8.354-4.56,13.883-4.56h48.001v11.087h-48.001c-2.109,0-3.911,0.595-5.401,1.774
		c-1.492,1.18-2.234,2.756-2.234,4.746c0,2.049,0.742,3.639,2.234,4.759c1.49,1.12,3.292,1.671,5.401,1.671h30.003
		c6.165,0,11.302,1.781,15.396,5.312C419.129,51.219,421.27,56.088,421.27,62.113z"/>
	<path fill="#FFFFFF" d="M498.999,62.113c0,6.027-2.154,10.881-6.426,14.535c-4.12,3.426-9.245,5.127-15.39,5.127h-48.562V70.691
		h48.562c3.054,0,5.685-0.688,7.918-2.051c2.549-1.678,3.819-3.947,3.819-6.801c0-2.863-1.303-5.061-3.911-6.621
		c-2.167-1.305-4.772-1.961-7.826-1.961h-30.01c-5.532,0-10.156-1.521-13.896-4.558c-3.965-3.3-5.958-7.654-5.958-13.05
		c0-5.346,1.993-9.664,5.958-12.963c3.739-3.042,8.363-4.56,13.896-4.56h48.002v11.087h-48.002c-2.124,0-3.924,0.595-5.412,1.774
		c-1.488,1.18-2.225,2.756-2.225,4.746c0,2.049,0.736,3.639,2.225,4.759s3.288,1.671,5.412,1.671h30.01
		c6.145,0,11.27,1.781,15.39,5.312C496.845,51.219,498.999,56.088,498.999,62.113z"/>
</g>
<g>
	<path fill="#FFFFFF" d="M41.508,82.711h-0.321c-3.083-0.039-6.157-0.65-9.054-1.799c-2.92-1.146-5.654-2.814-8.045-4.965
		c-2.4-2.154-4.45-4.773-5.987-7.801c-1.547-3.033-2.439-6.193-2.734-9.33c-0.079-0.791-0.114-1.574-0.114-2.361
		c0-2.307,0.315-4.578,0.938-6.741c0.836-2.877,2.18-5.562,4.011-7.92c1.685-2.178,3.778-4.069,6.219-5.557l-5.61-10.844
		c-3.978,2.065-7.409,4.813-10.201,8.063c-2.976,3.452-5.221,7.466-6.649,11.816c-1.182,3.585-1.799,7.394-1.799,11.284
		c0,0.885,0.032,1.779,0.096,2.682c0.355,4.861,1.676,9.787,4.06,14.518c2.381,4.738,5.6,8.809,9.379,12.111
		c3.767,3.289,8.075,5.811,12.647,7.451c4.152,1.498,8.506,2.264,12.879,2.264c0.397,0,0.795,0,1.2-0.016
		c4.489-0.146,8.946-1.121,13.149-2.965l-5.856-11.324C47.054,82.246,44.275,82.711,41.508,82.711z"/>
	<path fill="#FFFFFF" d="M75.254,67.301c-0.096-0.057-0.189-0.107-0.278-0.156c-1.009-0.584-2-1.213-2.96-1.881
		c-0.973-0.668-1.922-1.387-2.845-2.145c-0.924-0.76-1.83-1.561-2.696-2.395c-0.477-0.457-0.936-0.92-1.384-1.393
		c-0.019,1.461-0.169,2.906-0.436,4.314c-0.372,1.971-0.997,3.891-1.851,5.695c-0.869,1.814-1.96,3.531-3.282,5.086
		c-1.208,1.426-2.601,2.725-4.183,3.85l5.822,11.227c1.868-1.266,3.567-2.684,5.097-4.229c1.676-1.684,3.149-3.527,4.414-5.49
		c1.264-1.936,2.321-3.994,3.159-6.137c0.781-1.992,1.379-4.047,1.785-6.158c-0.023-0.018-0.058-0.037-0.092-0.053
		C75.435,67.396,75.35,67.35,75.254,67.301z"/>
	<path fill="#FFFFFF" d="M121.217,32.587c-0.694-3.956-2.086-7.935-4.213-11.781c-2.108-3.836-4.763-7.187-7.786-9.986
		c-3.017-2.803-6.414-5.07-9.993-6.711c-3.606-1.649-7.406-2.676-11.221-3C87.148,1.038,86.292,1,85.437,1
		c-2.75,0-5.486,0.373-8.152,1.17l5.227,9.666c1.678-0.458,3.395-0.674,5.115-0.674c0.676,0,1.361,0.036,2.046,0.103
		c2.559,0.256,5.089,0.973,7.487,2.095c2.387,1.123,4.646,2.648,6.646,4.534c2.002,1.878,3.763,4.122,5.167,6.685
		c1.398,2.555,2.321,5.216,2.787,7.86c0.243,1.376,0.366,2.747,0.366,4.107c0,1.248-0.104,2.492-0.303,3.703
		c-0.43,2.528-1.304,4.922-2.594,7.059c-1.211,1.996-2.791,3.766-4.715,5.193l5.451,10.076c3.02-2.102,5.477-4.756,7.36-7.771
		c1.969-3.166,3.298-6.739,3.962-10.526c0.31-1.821,0.465-3.692,0.465-5.595C121.752,36.673,121.578,34.63,121.217,32.587z"/>
	<path fill="#FFFFFF" d="M93.278,56.123c-0.321,0-0.632-0.008-0.956-0.018c-2.672-0.123-5.354-0.762-7.899-1.863
		c-2.567-1.111-4.99-2.682-7.148-4.661c-2.154-1.989-4.034-4.386-5.493-7.13c-0.896-1.676-1.883-3.255-2.98-4.749
		c-1.076-1.49-2.258-2.882-3.503-4.186c-1.26-1.299-2.591-2.503-3.986-3.61c-1.399-1.106-2.871-2.108-4.386-3.019
		c-2.292-1.362-4.704-2.497-7.203-3.366c-2.509-0.877-5.1-1.5-7.729-1.834c-1.58-0.208-3.177-0.311-4.776-0.311
		c-1.082,0-2.171,0.044-3.245,0.143c-2.469,0.22-4.934,0.697-7.355,1.448l5.583,10.746c2.196-0.629,4.436-0.929,6.659-0.929
		c0.568,0,1.135,0.023,1.7,0.063c2.925,0.198,5.817,0.91,8.521,2.083c2.699,1.173,5.217,2.795,7.427,4.826
		c2.208,2.022,4.127,4.462,5.601,7.267c0.905,1.704,1.908,3.325,3.013,4.842c1.106,1.518,2.301,2.953,3.58,4.275
		c1.277,1.318,2.638,2.537,4.043,3.646c1.418,1.111,2.893,2.105,4.407,2.988c2.288,1.32,4.674,2.375,7.105,3.15
		c2.413,0.775,4.883,1.275,7.344,1.48c0.834,0.061,1.676,0.104,2.515,0.104c1.591,0,3.177-0.133,4.742-0.387
		c2.141-0.354,4.233-0.953,6.25-1.814l-5.515-10.221C97.557,55.793,95.424,56.123,93.278,56.123z"/>
	<path fill="#FFFFFF" d="M58.898,22.621c0.091,0.052,0.182,0.102,0.281,0.158c0.992,0.59,1.966,1.224,2.909,1.901
		c0.954,0.672,1.876,1.385,2.783,2.134c0.895,0.754,1.771,1.543,2.623,2.36c0.44,0.435,0.875,0.871,1.299,1.317
		c0.02-1.332,0.15-2.642,0.397-3.911c0.349-1.805,0.924-3.531,1.714-5.124c0.789-1.594,1.782-3.062,2.976-4.359
		c1.051-1.14,2.258-2.157,3.606-3.011L72.181,4.25c-1.643,0.881-3.159,1.913-4.539,3.078c-1.548,1.302-2.935,2.763-4.139,4.374
		c-1.215,1.613-2.255,3.373-3.107,5.246c-0.78,1.737-1.4,3.571-1.851,5.485c0.031,0.017,0.061,0.036,0.09,0.047
		C58.716,22.526,58.81,22.574,58.898,22.621z"/>
</g>
</svg>
